
<svg width="241px" height="121px" viewBox="0 0 241 121" version="1.1" xmlns="http://www.w3.org/2000/svg" xmlns:xlink="http://www.w3.org/1999/xlink">
    <!-- Generator: Sketch 50.2 (55047) - http://www.bohemiancoding.com/sketch -->
    <desc>Created with Sketch.</desc>
    <defs></defs>
    <g id="Page-1" stroke="none" stroke-width="1" fill="none" fill-rule="evenodd">
        <g id="breakthroughGB" transform="translate(1.000000, 1.000000)" stroke="#00303F">
            <polygon id="Polygon" fill="#00303F" transform="translate(119.500000, 5.500000) scale(1, -1) translate(-119.500000, -5.500000) " points="119.5 0 174 0 170.233388 11 69.1624552 11 65 1.37390099e-15"></polygon>
            <g id="window" transform="translate(212.000000, 84.000000)">
                <rect id="Rectangle-4" fill="#EDDBCD" x="0.5" y="0.5" width="9" height="12"></rect>
                <path d="M5,0.295454545 L5,12.7045455" id="Line" stroke-linecap="square"></path>
                <path d="M0.882352941,6.79545455 L9.70588235,6.79545455" id="Line-2" stroke-linecap="square"></path>
            </g>
            <g id="window" transform="translate(212.000000, 44.000000)">
                <rect id="Rectangle-4" fill="#EDDBCD" x="0.5" y="0.5" width="9" height="12"></rect>
                <path d="M5,0.295454545 L5,12.7045455" id="Line" stroke-linecap="square"></path>
                <path d="M0.882352941,6.79545455 L9.70588235,6.79545455" id="Line-2" stroke-linecap="square"></path>
            </g>
            <g id="window" transform="translate(183.000000, 84.000000)">
                <rect id="Rectangle-4" fill="#EDDBCD" x="0.5" y="0.5" width="9" height="12"></rect>
                <path d="M5,0.295454545 L5,12.7045455" id="Line" stroke-linecap="square"></path>
                <path d="M0.882352941,6.79545455 L9.70588235,6.79545455" id="Line-2" stroke-linecap="square"></path>
            </g>
            <g id="window" transform="translate(183.000000, 44.000000)">
                <rect id="Rectangle-4" fill="#EDDBCD" x="0.5" y="0.5" width="9" height="12"></rect>
                <path d="M5,0.295454545 L5,12.7045455" id="Line" stroke-linecap="square"></path>
                <path d="M0.882352941,6.79545455 L9.70588235,6.79545455" id="Line-2" stroke-linecap="square"></path>
            </g>
            <g id="window" transform="translate(46.000000, 84.000000)">
                <rect id="Rectangle-4" fill="#EDDBCD" x="0.5" y="0.5" width="9" height="12"></rect>
                <path d="M5,0.295454545 L5,12.7045455" id="Line" stroke-linecap="square"></path>
                <path d="M0.882352941,6.79545455 L9.70588235,6.79545455" id="Line-2" stroke-linecap="square"></path>
            </g>
            <g id="window" transform="translate(46.000000, 44.000000)">
                <rect id="Rectangle-4" fill="#EDDBCD" x="0.5" y="0.5" width="9" height="12"></rect>
                <path d="M5,0.295454545 L5,12.7045455" id="Line" stroke-linecap="square"></path>
                <path d="M0.882352941,6.79545455 L9.70588235,6.79545455" id="Line-2" stroke-linecap="square"></path>
            </g>
            <g id="window" transform="translate(17.000000, 84.000000)">
                <rect id="Rectangle-4" fill="#EDDBCD" x="0.5" y="0.5" width="9" height="12"></rect>
                <path d="M5,0.295454545 L5,12.7045455" id="Line" stroke-linecap="square"></path>
                <path d="M0.882352941,6.79545455 L9.70588235,6.79545455" id="Line-2" stroke-linecap="square"></path>
            </g>
            <rect id="Rectangle-3" x="5.5" y="28.5" width="227" height="90"></rect>
            <polygon id="Polygon" fill="#00303F" transform="translate(119.500000, 23.500000) scale(1, -1) translate(-119.500000, -23.500000) " points="119.5 18 239 18 230.741099 29 9.1268514 29 0 18"></polygon>
            <rect id="Rectangle-5" fill="#EDDBCD" x="70.5" y="11.5" width="99" height="107"></rect>
            <rect id="Rectangle-9" fill="#EDDBCD" x="105.5" y="78.5" width="27" height="40"></rect>
            <rect id="Rectangle-10" fill="#00303F" x="121.5" y="97.5" width="3" height="10"></rect>
            <rect id="Rectangle-6" fill="#EDDBCD" x="140.5" y="61.5" width="3" height="57"></rect>
            <path d="M105.5,79 C105.821129,72.322209 111.742444,67 119,67 C126.257556,67 132.178871,72.322209 132.5,79 L105.5,79 Z" id="Combined-Shape" fill="#7A9D96"></path>
            <rect id="Rectangle-10" fill="#00303F" x="114.5" y="97.5" width="3" height="10"></rect>
            <g id="window" transform="translate(146.000000, 78.000000)">
                <rect id="Rectangle-4" fill="#EDDBCD" x="0.5" y="0.5" width="9" height="12"></rect>
                <path d="M5,0.295454545 L5,12.7045455" id="Line" stroke-linecap="square"></path>
                <path d="M0.882352941,6.79545455 L9.70588235,6.79545455" id="Line-2" stroke-linecap="square"></path>
            </g>
            <path d="M119.5,79 L119.5,119" id="Line-7" stroke-linecap="square"></path>
            <g id="window" transform="translate(83.000000, 78.000000)">
                <rect id="Rectangle-4" fill="#EDDBCD" x="0.5" y="0.5" width="9" height="12"></rect>
                <path d="M5,0.295454545 L5,12.7045455" id="Line" stroke-linecap="square"></path>
                <path d="M0.882352941,6.79545455 L9.70588235,6.79545455" id="Line-2" stroke-linecap="square"></path>
            </g>
            <g id="window" transform="translate(146.000000, 39.000000)">
                <rect id="Rectangle-4" fill="#EDDBCD" x="0.5" y="0.5" width="9" height="12"></rect>
                <path d="M5,0.295454545 L5,12.7045455" id="Line" stroke-linecap="square"></path>
                <path d="M0.882352941,6.79545455 L9.70588235,6.79545455" id="Line-2" stroke-linecap="square"></path>
            </g>
            <g id="window" transform="translate(83.000000, 39.000000)">
                <rect id="Rectangle-4" fill="#EDDBCD" x="0.5" y="0.5" width="9" height="12"></rect>
                <path d="M5,0.295454545 L5,12.7045455" id="Line" stroke-linecap="square"></path>
                <path d="M0.882352941,6.79545455 L9.70588235,6.79545455" id="Line-2" stroke-linecap="square"></path>
            </g>
            <g id="window" transform="translate(17.000000, 44.000000)">
                <rect id="Rectangle-4" fill="#EDDBCD" x="0.5" y="0.5" width="9" height="12"></rect>
                <path d="M5,0.295454545 L5,12.7045455" id="Line" stroke-linecap="square"></path>
                <path d="M0.882352941,6.79545455 L9.70588235,6.79545455" id="Line-2" stroke-linecap="square"></path>
            </g>
            <circle id="Oval-3" fill="#EDDBCD" cx="119" cy="28" r="10"></circle>
            <path d="M120,23.3 L120,28.7" id="Line-3" stroke-linecap="square"></path>
            <path d="M120,29 L117,27" id="Line-3" stroke-linecap="square"></path>
            <rect id="Rectangle-6" fill="#EDDBCD" x="95.5" y="61.5" width="3" height="57"></rect>
            <polygon id="Triangle-2" points="119 49 144 60 94 60"></polygon>
            <rect id="Rectangle-7" fill="#EDDBCD" x="83.5" y="59.5" width="72" height="5"></rect>
        </g>
    </g>
</svg>