
<svg width="153px" height="164px" viewBox="0 0 153 164" version="1.1" xmlns="http://www.w3.org/2000/svg" xmlns:xlink="http://www.w3.org/1999/xlink">
    <!-- Generator: Sketch 50.2 (55047) - http://www.bohemiancoding.com/sketch -->
    <desc>Created with Sketch.</desc>
    <defs></defs>
    <g id="Page-1" stroke="none" stroke-width="1" fill="none" fill-rule="evenodd">
        <g id="Shop-Kits-Sketch" transform="translate(75.342628, 91.882626) rotate(-43.000000) translate(-75.342628, -91.882626) translate(32.342628, 0.882626)">
            <path d="M33.7179266,163.585213 L79.6524933,7.99002323" id="Line-4" stroke="#00303F" stroke-width="5" stroke-linecap="square"></path>
            <path d="M62.0605316,166.949433 L28.8312706,6.30791308" id="Line-5" stroke="#00303F" stroke-width="5" stroke-linecap="square"></path>
            <ellipse id="Oval" stroke="#00303F" fill="#EDDBCD" cx="42.5139074" cy="102.608719" rx="42.5139074" ry="39.5295886"></ellipse>
            <ellipse id="Oval-2" stroke="#00303F" fill="#00303F" transform="translate(80.141159, 5.887386) rotate(17.000000) translate(-80.141159, -5.887386) " cx="80.1411589" cy="5.88738554" rx="4.88665603" ry="3.36422031"></ellipse>
            <ellipse id="Oval-2" stroke="#00303F" fill="#00303F" transform="translate(28.342605, 4.205275) rotate(-7.000000) translate(-28.342605, -4.205275) " cx="28.342605" cy="4.20527539" rx="4.88665603" ry="3.36422031"></ellipse>
            <path d="M17.1043634,71.0341771 C42.2054876,84.0039778 53.7569595,90.0542716 51.7587792,89.1850584" id="Line-6" stroke="#00303F" stroke-linecap="square" transform="translate(34.542074, 80.150563) rotate(-1.000000) translate(-34.542074, -80.150563) "></path>
            <path d="M8.30731525,80.3207599 L45.8294827,99.3636919" id="Line-6" stroke="#00303F" stroke-linecap="square"></path>
            <path d="M2.44332801,90.4134208 L39.3707574,109.154516" id="Line-6" stroke="#00303F" stroke-linecap="square"></path>
            <path d="M0.488665603,102.188192 L33.716306,119.008473" id="Line-6" stroke="#00303F" stroke-linecap="square"></path>
            <path d="M23.0476293,67.7090462 C24.3331829,69.7718393 25.2884619,71.3057777 25.9134662,72.3108615 C53.4675179,116.621162 65.6693771,138.201972 62.5190439,137.053294" id="Line-6" stroke="#00303F" stroke-linecap="square" transform="translate(43.025760, 102.402939) scale(1, -1) translate(-43.025760, -102.402939) "></path>
            <path d="M29.8086018,65.1817685 C50.3325571,74.992558 59.4641128,79.7750769 57.203269,79.529325" id="Line-6" stroke="#00303F" stroke-linecap="square"></path>
            <path d="M1.95466241,114.383491 C21.4844903,123.579467 30.173737,128.062279 28.0224026,127.831928" id="Line-6" stroke="#00303F" stroke-linecap="square" transform="translate(15.148634, 121.111931) rotate(-1.000000) translate(-15.148634, -121.111931) "></path>
            <path d="M31.2745986,73.1717917 C60.846396,119.219798 74.0035342,141.66707 70.7460132,140.513606" id="Line-6" stroke="#00303F" stroke-linecap="square" transform="translate(51.252729, 106.863839) scale(1, -1) translate(-51.252729, -106.863839) "></path>
            <path d="M41.4911616,81.0938738 C68.9014463,122.828732 81.0968803,143.17345 78.0774636,142.128027" id="Line-6" stroke="#00303F" stroke-linecap="square" transform="translate(60.009016, 111.630111) scale(1, -1) translate(-60.009016, -111.630111) "></path>
            <path d="M56.6852099,92.5160585 C76.5486317,125.615486 85.3863016,141.750644 83.1982197,140.921532" id="Line-6" stroke="#00303F" stroke-linecap="square" transform="translate(70.104551, 116.733991) scale(1, -1) translate(-70.104551, -116.733991) "></path>
            <polygon id="Triangle" fill="#00303F" transform="translate(31.744287, 170.796860) scale(1, -1) rotate(-15.000000) translate(-31.744287, -170.796860) " points="31.7442866 164.488947 33.3369745 177.104773 30.1515987 177.104773"></polygon>
            <polygon id="Triangle" fill="#00303F" transform="translate(63.749526, 174.895351) scale(1, -1) rotate(11.000000) translate(-63.749526, -174.895351) " points="63.7495262 168.587438 66.3445262 181.203264 61.1545262 181.203264"></polygon>
        </g>
    </g>
</svg>