
<svg width="169px" height="149px" viewBox="0 0 169 149" version="1.1" xmlns="http://www.w3.org/2000/svg" xmlns:xlink="http://www.w3.org/1999/xlink">
    <!-- Generator: Sketch 50.2 (55047) - http://www.bohemiancoding.com/sketch -->
    <desc>Created with Sketch.</desc>
    <defs></defs>
    <g id="Page-1" stroke="none" stroke-width="1" fill="none" fill-rule="evenodd">
        <g id="trinity-knot" transform="translate(-8.000000, 3.000000)" stroke="#053C42" stroke-width="5">
            <path d="M125.055866,168.193548 C113.111971,161.113277 104.385475,138.692541 104.385475,112.129032 C104.385475,85.5655235 113.111971,63.1447879 125.055866,56.0645161 C136.999761,63.1447879 145.726257,85.5655235 145.726257,112.129032 C145.726257,138.692541 136.999761,161.113277 125.055866,168.193548 Z" id="Combined-Shape" transform="translate(125.055866, 112.129032) rotate(-60.000000) translate(-125.055866, -112.129032) "></path>
            <path d="M59.9441341,168.193548 C48.0002387,161.113277 39.273743,138.692541 39.273743,112.129032 C39.273743,85.5655235 48.0002387,63.1447879 59.9441341,56.0645161 C71.8880294,63.1447879 80.6145251,85.5655235 80.6145251,112.129032 C80.6145251,138.692541 71.8880294,161.113277 59.9441341,168.193548 Z" id="Combined-Shape" stroke-opacity="0.38" transform="translate(59.944134, 112.129032) rotate(60.000000) translate(-59.944134, -112.129032) "></path>
            <path d="M93.0167598,112.129032 C81.0728644,105.048761 72.3463687,82.6280249 72.3463687,56.0645161 C72.3463687,29.5010074 81.0728644,7.08027173 93.0167598,1.31450406e-12 C104.960655,7.08027173 113.687151,29.5010074 113.687151,56.0645161 C113.687151,82.6280249 104.960655,105.048761 93.0167598,112.129032 Z" id="Combined-Shape"></path>
        </g>
    </g>
</svg>