
<svg width="48px" height="43px" viewBox="0 0 48 43" version="1.1" xmlns="http://www.w3.org/2000/svg" xmlns:xlink="http://www.w3.org/1999/xlink">
    <!-- Generator: Sketch 50.2 (55047) - http://www.bohemiancoding.com/sketch -->
    <desc>Created with Sketch.</desc>
    <defs></defs>
    <g id="Page-1" stroke="none" stroke-width="1" fill="none" fill-rule="evenodd">
        <g id="trinity-knot-landing-page" transform="translate(-2.000000, 2.000000)" stroke="#FBFEFE" stroke-width="2">
            <path d="M34.9818182,46.8085106 C31.7039672,44.8282084 29.3090909,38.5572862 29.3090909,31.1276596 C29.3090909,23.6980329 31.7039672,17.4271107 34.9818182,15.4468085 C38.2596691,17.4271107 40.6545455,23.6980329 40.6545455,31.1276596 C40.6545455,38.5572862 38.2596691,44.8282084 34.9818182,46.8085106 Z" id="Combined-Shape" transform="translate(34.981818, 31.127660) rotate(-60.000000) translate(-34.981818, -31.127660) "></path>
            <path d="M17.0181818,46.8085106 C13.7403309,44.8282084 11.3454545,38.5572862 11.3454545,31.1276596 C11.3454545,23.6980329 13.7403309,17.4271107 17.0181818,15.4468085 C20.2960328,17.4271107 22.6909091,23.6980329 22.6909091,31.1276596 C22.6909091,38.5572862 20.2960328,44.8282084 17.0181818,46.8085106 Z" id="Combined-Shape" stroke-opacity="0.484176857" transform="translate(17.018182, 31.127660) rotate(60.000000) translate(-17.018182, -31.127660) "></path>
            <path d="M26,31.3617021 C22.7221491,29.3813999 20.3272727,23.1104777 20.3272727,15.6808511 C20.3272727,8.25122439 22.7221491,1.98030223 26,7.13873405e-14 C29.2778509,1.98030223 31.6727273,8.25122439 31.6727273,15.6808511 C31.6727273,23.1104777 29.2778509,29.3813999 26,31.3617021 Z" id="Combined-Shape"></path>
        </g>
    </g>
</svg>