
<svg width="186px" height="54px" viewBox="0 0 186 54" version="1.1" xmlns="http://www.w3.org/2000/svg" xmlns:xlink="http://www.w3.org/1999/xlink">
    <!-- Generator: Sketch 50.2 (55047) - http://www.bohemiancoding.com/sketch -->
    <desc>Created with Sketch.</desc>
    <defs></defs>
    <g id="Page-1" stroke="none" stroke-width="1" fill="none" fill-rule="evenodd">
        <g id="Group" transform="translate(-1.000000, -4.000000)">
            <g id="trinity-knot" transform="translate(0.000000, 10.000000)" stroke="#053C42" stroke-width="2">
                <path d="M28.2545455,37.2340426 C25.6070505,35.6588021 23.6727273,30.6705686 23.6727273,24.7606383 C23.6727273,18.850708 25.6070505,13.8624745 28.2545455,12.287234 C30.9020404,13.8624745 32.8363636,18.850708 32.8363636,24.7606383 C32.8363636,30.6705686 30.9020404,35.6588021 28.2545455,37.2340426 Z" id="Combined-Shape" transform="translate(28.254545, 24.760638) rotate(-60.000000) translate(-28.254545, -24.760638) "></path>
                <path d="M13.7454545,37.2340426 C11.0979596,35.6588021 9.16363636,30.6705686 9.16363636,24.7606383 C9.16363636,18.850708 11.0979596,13.8624745 13.7454545,12.287234 C16.3929495,13.8624745 18.3272727,18.850708 18.3272727,24.7606383 C18.3272727,30.6705686 16.3929495,35.6588021 13.7454545,37.2340426 Z" id="Combined-Shape" stroke-opacity="0.38" transform="translate(13.745455, 24.760638) rotate(60.000000) translate(-13.745455, -24.760638) "></path>
                <path d="M21,24.9468085 C18.352505,23.3715681 16.4181818,18.3833346 16.4181818,12.4734043 C16.4181818,6.56347395 18.352505,1.57524041 21,4.62185845e-13 C23.647495,1.57524041 25.5818182,6.56347395 25.5818182,12.4734043 C25.5818182,18.3833346 23.647495,23.3715681 21,24.9468085 Z" id="Combined-Shape"></path>
            </g>
            <text id="Colleen-Higgins-Desi" font-family="DancingScript-Bold, Dancing Script" font-size="24" font-weight="bold" fill="#053C42">
                <tspan x="52" y="22">Colleen Higgins</tspan>
                <tspan x="52" y="51">Designs</tspan>
            </text>
        </g>
    </g>
</svg>