
<svg width="128px" height="176px" viewBox="0 0 128 176" version="1.1" xmlns="http://www.w3.org/2000/svg" xmlns:xlink="http://www.w3.org/1999/xlink">
    <!-- Generator: Sketch 50.2 (55047) - http://www.bohemiancoding.com/sketch -->
    <desc>Created with Sketch.</desc>
    <defs></defs>
    <g id="Page-1" stroke="none" stroke-width="1" fill="none" fill-rule="evenodd">
        <g id="Coffee-Cup" transform="translate(1.000000, 3.000000)">
            <path d="M81.7841482,1 C75.2613827,8.14697539 72,15.4844918 72,23.0125491 C72,33.4516531 82.2690482,38.0608155 86.0972341,45.6603957 C88.6287409,50.685854 85.8361709,58.1323887 77.7195243,68" id="Line-9" stroke="#053C42" stroke-width="4" stroke-linecap="square"></path>
            <path d="M59.5659358,29 C56.5219786,33.1601797 55,37.4312713 55,41.8132749 C55,47.8897682 59.7922225,50.5727135 61.5787093,54.9963497 C62.7600791,57.9216165 61.4568798,62.2561666 57.6691114,68" id="Line-9" stroke="#053C42" stroke-width="4" stroke-linecap="square"></path>
            <path d="M114.079537,90.0587721 L88.3041583,146.636169 L86.3773763,146.636169 C82.8729775,143.634711 86.3122721,129.563201 94.3736764,114.401904 C101.130401,101.694353 109.068166,92.1068516 114.079537,90.0587721 Z" id="Combined-Shape" stroke="#053C42" fill="#053C42" transform="translate(99.422939, 118.411168) scale(-1, -1) rotate(-10.000000) translate(-99.422939, -118.411168) "></path>
            <path d="M109.695172,102.231562 C119.231724,99.144321 124,101.86133 124,110.382589 C124,118.903848 115.666667,127.109652 99,135" id="Line-8" stroke="#053C42" stroke-width="6" stroke-linecap="square"></path>
            <path d="M63,88 L106.679281,88 C107.231565,88 107.679281,88.4477153 107.679281,89 C107.679281,89.0916964 107.666668,89.1829572 107.641799,89.2712167 L90.8115295,149 L35.1884705,149 L18.3582012,89.2712167 C18.2084123,88.7396325 18.5179186,88.1872705 19.0495028,88.0374817 C19.1377623,88.0126121 19.229023,88 19.3207195,88 Z" id="Polygon-3" stroke="#053C42" fill="#053C42"></path>
            <path d="M41.0321467,90.0746092 L41.0811637,90.0746092 L15.0724716,146.655331 L13.2684966,146.655331 C9.7272084,143.642082 13.1349049,129.564587 21.1912583,114.41279 C27.9891345,101.627844 36.0036891,92.0145351 41.0321467,90.0746092 Z" id="Combined-Shape" stroke="#053C42" fill="#053C42" transform="translate(26.327786, 118.430330) scale(1, -1) rotate(-10.000000) translate(-26.327786, -118.430330) "></path>
            <path d="M62.5,156 L123.624175,156 C124.17646,156 124.624175,156.447715 124.624175,157 C124.624175,157.338617 124.452815,157.654231 124.16883,157.83866 L102.363192,172 L22.6368077,172 L0.831169787,157.83866 C0.367990576,157.537855 0.236360021,156.918524 0.537164714,156.455345 C0.721594041,156.171361 1.03720812,156 1.37582486,156 L62.5,156 Z" id="Polygon-2" stroke="#053C42" fill="#053C42"></path>
            <rect id="Rectangle-11" stroke="#FFFFFF" fill="#FFFFFF" x="18.5" y="148.5" width="100" height="6"></rect>
            <path d="M40.7841482,0 C34.2613827,7.14697539 31,14.4844918 31,22.0125491 C31,32.4516531 41.2690482,37.0608155 45.0972341,44.6603957 C47.6287409,49.685854 44.8361709,57.1323887 36.7195243,67" id="Line-9" stroke="#053C42" stroke-width="4" stroke-linecap="square"></path>
            <rect id="Rectangle-11" stroke="#FFFFFF" fill="#FFFFFF" x="12.5" y="82.5" width="100" height="6"></rect>
            <text id="W" font-family="Apple-Chancery, Apple Chancery" font-size="48" font-weight="normal" fill="#FBFEFE">
                <tspan x="41" y="132">W</tspan>
            </text>
        </g>
    </g>
</svg>