<?xml version="1.0" standalone="no"?>
<!DOCTYPE svg PUBLIC "-//W3C//DTD SVG 20010904//EN"
 "http://www.w3.org/TR/2001/REC-SVG-20010904/DTD/svg10.dtd">
<svg version="1.0" xmlns="http://www.w3.org/2000/svg"
 width="793.000000pt" height="696.000000pt" viewBox="0 0 793.000000 696.000000"
 preserveAspectRatio="xMidYMid meet">

<g transform="translate(0.000000,696.000000) scale(0.100000,-0.100000)"
fill="#000000" stroke="none">
<path d="M1485 6694 c-195 -46 -332 -172 -384 -354 -7 -25 -17 -58 -22 -74
-13 -44 -10 -224 5 -286 31 -125 113 -302 194 -415 75 -105 226 -286 285 -341
86 -80 106 -87 203 -70 562 99 945 346 1035 666 7 25 13 97 14 160 0 105 -3
122 -29 187 -48 120 -141 221 -234 252 -20 7 -46 16 -57 21 -118 49 -313 21
-414 -59 -21 -17 -41 -31 -44 -31 -2 0 -15 24 -27 53 -51 119 -146 221 -241
256 -19 7 -43 17 -53 23 -20 11 -197 20 -231 12z m255 -89 c123 -62 221 -195
235 -317 4 -32 11 -61 17 -64 5 -3 23 10 39 29 43 52 119 105 186 128 47 17
75 20 150 16 82 -4 100 -8 169 -43 63 -31 88 -51 126 -98 111 -139 127 -339
41 -511 -125 -247 -486 -447 -952 -527 l-74 -13 -111 116 c-249 258 -389 497
-426 732 -46 281 117 536 370 581 60 11 182 -5 230 -29z"/>
<path d="M5037 6175 c-60 -14 -143 -36 -185 -49 -89 -28 -265 -105 -320 -139
-20 -13 -57 -35 -82 -48 -135 -72 -426 -311 -514 -422 -16 -20 -37 -37 -45
-37 -9 0 -74 59 -144 130 -164 166 -333 290 -547 402 l-55 28 -3 -41 c-2 -23
-1 -46 1 -53 3 -6 54 -40 113 -75 164 -97 292 -199 473 -378 90 -90 167 -163
170 -163 3 1 26 26 51 56 115 141 306 312 470 421 197 132 402 219 630 270
102 22 138 25 320 25 181 0 220 -3 335 -25 72 -15 176 -42 233 -62 157 -54
400 -182 528 -278 87 -65 211 -180 281 -262 65 -75 197 -262 235 -333 16 -29
21 -32 68 -32 30 0 50 4 50 11 0 16 -105 190 -168 278 -61 84 -184 225 -253
288 -120 110 -325 254 -422 298 -29 12 -81 36 -117 52 -115 53 -302 111 -425
134 -96 18 -165 23 -345 25 -207 2 -234 1 -333 -21z"/>
<path d="M950 5471 c-52 -6 -56 -8 -97 -62 -57 -75 -182 -282 -176 -291 2 -5
26 -8 52 -8 l47 0 59 97 c56 95 84 135 153 217 31 38 40 58 25 54 -5 -1 -33
-4 -63 -7z"/>
<path d="M3550 4520 l0 -470 105 0 105 0 0 249 c0 149 4 252 10 256 5 3 65
-35 133 -85 69 -49 129 -90 135 -90 6 0 57 34 114 76 145 106 146 106 158 99
6 -4 10 -93 10 -256 l0 -249 105 0 105 0 0 470 c0 259 -3 470 -7 470 -6 0
-147 -105 -401 -299 l-83 -63 -239 181 c-131 99 -241 181 -244 181 -3 0 -6
-211 -6 -470z m261 245 c120 -91 223 -165 229 -165 6 0 47 29 93 63 251 194
352 266 359 259 5 -5 7 -195 6 -423 l-3 -414 -75 0 -75 0 -3 255 c-1 140 -4
261 -7 268 -3 9 -28 -5 -77 -41 -171 -126 -203 -147 -220 -147 -17 0 -59 29
-233 158 l-60 44 -5 -268 -5 -269 -77 -3 -78 -3 0 426 c0 234 3 425 7 425 4 0
105 -74 224 -165z"/>
<path d="M5670 4520 l0 -470 105 0 105 0 0 255 c0 152 4 255 9 255 6 0 65 -40
133 -90 68 -49 128 -90 133 -90 6 0 66 41 135 90 68 50 128 90 132 90 4 0 9
-114 10 -252 l3 -253 102 -3 c100 -3 103 -2 108 21 8 31 2 904 -6 912 -4 3
-104 -68 -223 -160 -119 -91 -227 -172 -240 -180 -22 -15 -30 -10 -260 165
-131 99 -239 180 -242 180 -2 0 -4 -211 -4 -470z m281 228 c108 -81 200 -148
205 -148 5 0 32 17 59 38 328 248 389 292 397 284 4 -4 7 -195 6 -423 l-3
-414 -77 -3 -78 -3 0 265 c0 146 -3 267 -7 269 -5 3 -69 -40 -143 -94 -74 -54
-144 -98 -155 -98 -11 0 -51 23 -90 52 -137 103 -202 147 -209 140 -3 -3 -6
-125 -6 -270 l0 -264 -77 3 -78 3 -3 410 c-1 225 0 416 3 424 7 17 12 14 256
-171z"/>
<path d="M2570 4958 c-200 -74 -321 -244 -321 -448 0 -267 204 -471 470 -471
208 0 376 116 448 311 76 204 -17 460 -205 565 -121 68 -279 85 -392 43z m219
-9 c168 -29 304 -145 356 -303 78 -243 -68 -505 -320 -572 -242 -65 -509 116
-544 368 -21 147 22 276 126 381 61 61 137 103 225 122 80 17 79 17 157 4z"/>
<path d="M2648 4795 c-128 -35 -208 -148 -208 -294 0 -124 72 -228 188 -271
68 -26 117 -25 189 1 130 48 210 192 182 328 -25 125 -92 202 -204 236 -59 18
-84 18 -147 0z m176 -40 c48 -20 104 -79 129 -134 25 -56 26 -168 3 -222 -49
-116 -183 -182 -303 -150 -181 49 -249 298 -120 438 82 89 184 113 291 68z"/>
<path d="M326 4954 c-8 -20 -8 -867 0 -888 5 -13 25 -16 110 -16 l104 0 2 193
3 192 163 3 163 2 -3 98 -3 97 -162 3 -163 2 0 65 0 64 143 3 142 3 0 95 0 95
-246 3 c-218 2 -247 1 -253 -14z m469 -84 l0 -65 -140 -5 -140 -5 0 -93 0 -94
156 1 c181 2 182 2 177 -81 l-3 -53 -165 -5 -165 -5 -3 -193 -2 -193 -78 3
-77 3 -3 415 c-1 228 0 421 3 428 3 10 53 12 222 10 l218 -3 0 -65z"/>
<path d="M1220 4511 l0 -461 105 0 104 0 3 73 3 72 34 3 c31 3 42 -4 111 -73
l76 -76 137 3 137 3 -97 104 -96 104 29 21 c51 36 96 89 123 146 37 78 42 219
11 302 -31 83 -96 150 -189 195 l-76 37 -207 4 -208 4 0 -461z m424 414 c94
-29 181 -97 219 -172 42 -83 45 -198 6 -296 -26 -65 -63 -110 -128 -153 l-54
-36 87 -87 c47 -47 86 -90 86 -94 0 -4 -44 -7 -98 -7 l-98 0 -74 75 -75 76
-54 -3 -54 -3 -1 -70 -1 -70 -77 -3 c-49 -2 -78 1 -78 8 0 5 0 195 0 420 0
226 0 415 0 420 0 17 336 13 394 -5z"/>
<path d="M1410 4585 l0 -218 87 7 c110 8 166 34 205 95 24 39 28 55 28 118 0
87 -21 133 -81 176 -34 24 -51 29 -139 34 l-100 6 0 -218z m210 162 c59 -31
85 -82 84 -163 -1 -73 -26 -121 -82 -156 -29 -18 -51 -22 -112 -23 l-75 0 -3
170 c-1 93 0 175 2 182 9 24 136 17 186 -10z"/>
<path d="M7047 4963 c-4 -3 -7 -210 -7 -460 l0 -453 290 0 290 0 0 95 0 95
-174 0 c-137 0 -176 3 -185 14 -8 9 -11 45 -9 98 l3 83 165 5 165 5 0 95 0 95
-165 5 -165 5 0 60 0 60 143 3 142 3 0 99 0 100 -243 0 c-134 0 -247 -3 -250
-7z m471 -81 c5 -80 1 -82 -155 -82 l-134 0 3 -96 3 -96 146 1 c80 1 153 -1
162 -5 14 -5 17 -19 17 -70 l0 -64 -165 0 -166 0 3 -127 3 -128 178 -3 177 -2
0 -65 0 -65 -260 0 -260 0 0 423 c0 233 3 427 7 431 4 3 104 5 222 4 l216 -3
3 -53z"/>
<path d="M530 3776 c0 -3 4 -15 10 -28 5 -13 25 -77 46 -143 57 -191 61 -199
134 -348 97 -200 198 -365 224 -369 18 -3 21 -11 24 -60 l3 -57 132 -3 132 -3
5 -440 5 -440 125 0 125 0 3 434 c2 333 5 437 15 443 6 4 72 8 145 8 l133 0
-3 118 -3 117 -407 3 -407 2 -42 61 c-22 33 -73 126 -113 207 -63 128 -92 204
-171 457 -13 39 -14 40 -64 43 -28 2 -51 1 -51 -2z m1220 -891 l0 -85 -140 0
-140 0 -2 -437 -3 -438 -92 -3 -93 -3 -2 438 -3 438 -125 3 c-103 2 -127 5
-137 19 -20 26 -16 64 7 70 24 6 24 12 5 37 -35 46 -37 46 355 46 l370 0 0
-85z"/>
<path d="M7131 3733 c-91 -319 -165 -482 -358 -780 -18 -28 -33 -54 -33 -57 0
-3 26 -6 58 -8 l57 -3 3 -240 c5 -348 -13 -432 -100 -490 -39 -26 -51 -29
-128 -29 -77 0 -89 3 -128 29 -28 18 -52 46 -68 77 l-24 48 -1 342 c0 189 -3
353 -6 366 -5 22 -7 23 -132 20 l-126 -3 -3 -290 c-4 -403 14 -529 91 -651 91
-145 280 -219 482 -189 203 30 331 150 380 356 12 51 15 138 15 422 l0 357
-83 0 c-46 0 -86 3 -90 6 -3 3 12 35 34 70 65 108 157 310 195 433 20 64 45
143 55 175 27 84 27 86 -29 86 l-48 0 -13 -47z m-761 -1085 c0 -355 7 -411 55
-474 15 -19 41 -44 57 -54 47 -28 135 -42 199 -30 98 19 132 43 179 130 25 45
25 47 28 365 1 176 5 335 8 353 l5 33 87 -3 87 -3 3 -310 c3 -339 -5 -419 -52
-520 -31 -68 -101 -143 -164 -178 -175 -95 -429 -64 -551 68 -56 61 -88 122
-111 211 -18 71 -20 112 -20 407 l0 327 95 0 95 0 0 -322z"/>
<path d="M2320 3014 c-169 -34 -326 -154 -402 -307 -21 -41 -38 -83 -38 -92 0
-9 -5 -25 -11 -36 -5 -11 -10 -69 -10 -128 0 -121 21 -206 73 -294 94 -160
229 -250 419 -281 176 -29 356 32 489 164 224 223 225 583 3 807 -116 118
-220 163 -388 168 -60 2 -121 1 -135 -1z m224 -39 c106 -22 188 -67 265 -143
116 -116 162 -225 162 -389 0 -56 -5 -111 -10 -122 -6 -11 -11 -27 -11 -36 0
-9 -15 -46 -32 -83 -41 -82 -141 -186 -223 -231 -72 -39 -189 -71 -259 -71
-241 2 -456 165 -527 400 -19 62 -17 241 3 307 59 189 222 334 418 372 69 13
138 12 214 -4z"/>
<path d="M2365 2801 c-97 -17 -196 -96 -246 -198 -21 -42 -24 -62 -24 -158 0
-101 2 -114 28 -163 77 -146 215 -218 364 -191 120 22 200 84 255 196 30 62
33 76 32 158 0 80 -3 98 -30 155 -71 148 -222 229 -379 201z m153 -41 c88 -23
183 -119 212 -216 7 -23 11 -75 9 -120 -5 -92 -28 -145 -91 -210 -148 -153
-401 -110 -495 84 -23 49 -27 70 -28 147 0 106 19 157 84 228 83 89 185 118
309 87z"/>
<path d="M5320 3014 c-165 -34 -314 -145 -399 -297 -69 -124 -86 -308 -41
-441 32 -97 79 -174 149 -242 186 -185 472 -216 708 -79 72 43 168 146 203
220 52 109 64 160 64 275 0 164 -51 286 -166 402 -67 66 -135 109 -230 143
-43 16 -238 29 -288 19z m225 -39 c247 -52 426 -272 427 -524 1 -244 -146
-446 -380 -523 -131 -43 -264 -32 -398 32 -286 138 -391 490 -229 767 42 70
142 163 217 201 117 58 236 74 363 47z"/>
<path d="M5365 2801 c-113 -20 -213 -107 -256 -223 -22 -60 -26 -199 -8 -245
31 -75 41 -92 78 -134 126 -143 353 -151 491 -16 24 23 56 71 73 107 26 57 30
77 30 155 0 79 -4 98 -30 155 -68 148 -221 229 -378 201z m130 -36 c116 -20
223 -137 243 -267 23 -152 -52 -290 -192 -354 -51 -23 -68 -26 -130 -22 -119
8 -213 71 -264 178 -36 76 -38 210 -4 285 25 55 78 115 132 148 36 22 133 48
160 42 8 -2 33 -6 55 -10z"/>
<path d="M3657 3003 c-3 -5 9 -33 27 -63 54 -91 308 -508 372 -610 l59 -95 5
-175 5 -175 125 0 125 0 3 183 c2 156 5 187 21 215 10 17 69 115 131 217 62
102 146 241 188 310 41 69 83 137 93 152 11 14 19 31 19 37 0 7 -44 11 -134
11 l-134 0 -34 -54 c-18 -30 -85 -142 -148 -250 -63 -107 -120 -197 -127 -200
-8 -4 -90 118 -111 167 -2 4 -48 81 -102 170 l-97 162 -141 3 c-77 1 -143 -1
-145 -5z m358 -184 c141 -238 143 -240 185 -316 29 -50 45 -70 55 -66 8 3 15
8 15 13 0 4 69 121 153 261 l153 254 83 3 c47 2 90 1 98 -2 9 -4 -5 -36 -53
-113 -37 -60 -74 -121 -84 -138 -14 -25 -180 -297 -258 -425 -20 -32 -22 -49
-22 -203 l0 -168 -92 3 -93 3 -5 165 c-4 147 -7 168 -26 195 -12 17 -55 86
-96 155 -41 69 -127 211 -191 316 -65 106 -117 197 -117 203 0 7 35 11 103 11
l103 0 89 -151z"/>
<path d="M2053 1676 c3 -10 31 -35 239 -212 45 -40 142 -117 213 -173 152
-118 224 -175 320 -251 39 -31 131 -99 205 -153 74 -53 187 -134 250 -180 63
-45 174 -123 245 -172 72 -49 157 -107 190 -130 89 -61 164 -105 178 -105 17
0 373 240 702 475 323 230 785 591 1000 780 44 39 95 83 113 97 17 15 29 28
25 30 -7 3 -111 2 -134 -1 -3 -1 -44 -34 -91 -74 -380 -323 -951 -754 -1425
-1074 -100 -68 -186 -123 -192 -123 -11 0 -237 149 -436 287 -313 217 -965
721 -1196 925 -66 57 -67 58 -138 61 -49 3 -71 1 -68 -7z"/>
</g>
</svg>
